Fly_normalized_Motion_pl11
version=1
nRows=18
nColumns=43
inDegrees=yes
endheader
time		pelvis_tilt		pelvis_list		pelvis_rotation		pelvis_tx		pelvis_ty		pelvis_tz		hip_flexion_r		hip_adduction_r		hip_rotation_r		knee_angle_r		ankle_angle_r		subtalar_angle_r		mtp_angle_r		hip_flexion_l		hip_adduction_l		hip_rotation_l		knee_angle_l		ankle_angle_l		subtalar_angle_l		mtp_angle_l		lumbar_extension		lumbar_bending		lumbar_rotation		neck_flexion		neck_lateral_bending		neck_rotation		arm_flex_r		arm_add_r		arm_rot_r		elbow_flex_r		pro_sup_r		wrist_flex_r		wrist_dev_r		hand_finger_flex_r		arm_flex_l		arm_add_l		arm_rot_l		elbow_flex_l		pro_sup_l		wrist_flex_l		wrist_dev_l		hand_finger_flex_l		
1.710000		2.519525		-16.613517		86.779387		-0.018165		1.715389		1.307509		64.617973		-8.305924		-0.279632		-117.176586		-2.477171		-1.018789		24.937428		47.697792		-10.075045		3.684323		-115.725643		-18.594710		2.582686		13.559444		-27.562288		-1.610153		3.067311		5.219918		7.236462		1.054751		106.941057		-11.296505		36.201508		55.146771		97.971744		0.068274		-14.402754		-33.550449		109.499545		-9.371336		24.237457		49.807277		106.262166		-11.578112		-10.486956		-14.782343		
1.714091		2.517378		-16.346671		86.697444		-0.017846		1.715947		1.300253		64.552014		-8.193240		-0.885247		-116.507577		-2.486118		-2.158161		23.776989		47.637952		-10.077881		3.766599		-114.851166		-21.574959		1.851295		14.066710		-27.543168		-1.634085		3.285626		4.898288		7.363023		1.051483		106.001005		-11.822116		36.260612		55.419143		98.102601		0.102976		-14.109200		-33.796562		108.458031		-9.729494		24.052965		50.074619		106.582821		-11.541018		-10.434920		-14.707260		
1.718182		2.466054		-16.040009		86.607679		-0.017529		1.716475		1.292947		64.488177		-8.099136		-1.330322		-115.829443		-2.582358		-2.854851		23.255255		47.494965		-10.028117		3.827519		-113.953740		-23.744560		1.561863		14.205646		-27.569273		-1.714329		3.433689		4.514231		7.476973		1.020931		104.997647		-12.296566		36.301156		55.627595		98.016014		0.084518		-13.867459		-33.992722		107.378766		-10.113318		23.917741		50.317826		106.736728		-11.595897		-10.350048		-14.707564		
1.722273		2.455981		-15.776612		86.600015		-0.017340		1.716867		1.285573		64.456612		-8.059950		-1.849877		-115.089682		-2.998635		-3.486736		22.802908		47.367868		-9.992608		3.819226		-113.070828		-24.857395		0.721035		14.342959		-27.555532		-1.723852		3.551084		4.084793		7.624724		0.979056		103.879999		-12.865635		36.325544		55.987999		97.851970		0.016139		-13.536378		-34.241575		106.171507		-10.587125		23.832344		50.773676		106.974042		-11.664746		-10.131764		-14.708624		
1.726364		2.404007		-15.526229		86.602037		-0.017143		1.717027		1.278198		64.446437		-8.081723		-2.304843		-114.350841		-3.357372		-3.562812		22.632290		47.217165		-9.890377		3.800033		-112.249335		-24.753457		0.183210		14.412685		-27.547070		-1.765231		3.618408		3.783984		7.708924		0.917908		102.773741		-13.520802		36.467644		56.345618		97.773961		0.029278		-13.502367		-34.345266		104.976984		-11.234035		23.978305		51.243111		107.143317		-11.657031		-10.138627		-14.684729		
1.730455		2.406608		-15.309302		86.649908		-0.016959		1.717040		1.270797		64.436982		-8.069531		-2.794804		-113.568267		-3.807610		-3.537285		22.510269		47.073652		-9.834370		3.747717		-111.408855		-24.020893		-0.776985		14.463957		-27.489645		-1.740122		3.656397		3.386727		7.840392		0.870422		101.517250		-14.126731		36.475511		56.732479		97.640163		-0.055360		-13.405257		-34.488566		103.640445		-11.887337		24.018205		51.799632		107.308520		-11.754337		-9.974733		-14.702843		
1.734545		2.480034		-15.199603		86.736940		-0.016809		1.716666		1.263532		64.513014		-7.977140		-3.290379		-112.746380		-4.219278		-3.321749		22.418868		47.061212		-9.840831		3.668218		-110.628382		-22.708299		-2.276044		14.467819		-27.306948		-1.615125		3.684276		2.989956		7.981946		0.878473		100.192628		-14.660797		36.431633		57.102821		97.446304		-0.148432		-13.084259		-34.673958		102.214158		-12.510817		23.929414		52.372727		107.593704		-11.927009		-9.380790		-14.751099		
1.738636		2.523796		-15.089153		86.829680		-0.016643		1.716186		1.256205		64.561265		-7.977705		-3.821500		-111.921918		-4.539428		-2.841477		22.401246		47.039539		-9.816230		3.606456		-109.761049		-21.415996		-3.520264		14.423725		-27.131628		-1.509984		3.764049		2.588200		8.057932		0.845745		98.856808		-15.344564		36.429478		57.524176		97.290876		-0.066296		-12.875573		-34.788833		100.758381		-13.190660		23.986474		52.946193		107.891890		-12.002925		-8.990471		-14.779381		
1.742727		2.572300		-14.969935		86.940764		-0.016502		1.715584		1.248845		64.562874		-7.982688		-4.334483		-111.051322		-4.849027		-2.222271		22.422242		47.029502		-9.778510		3.566248		-108.897078		-20.134694		-4.726084		14.355950		-26.959689		-1.389933		3.845539		2.144040		8.106681		0.783410		97.477896		-16.076424		36.415454		57.961586		97.151567		0.116911		-12.668898		-34.886144		99.275333		-13.883690		24.083732		53.455682		108.179968		-12.057399		-8.662313		-14.818206		
1.746818		2.723717		-14.982034		87.148720		-0.016600		1.714626		1.241587		64.653506		-7.949609		-4.854036		-110.129612		-5.035314		-1.041151		22.626008		47.223002		-9.774869		3.581481		-108.036277		-18.966912		-6.447904		14.054769		-26.640018		-1.095345		3.940650		1.626390		8.126404		0.677352		96.002333		-16.780201		36.168641		58.505580		97.055114		0.684052		-11.942297		-35.160000		97.659097		-14.492400		24.004738		54.000772		108.719317		-12.169421		-7.874445		-14.984374		
1.750909		2.764953		-14.818426		87.311513		-0.016595		1.713828		1.234172		64.557384		-7.987328		-5.336578		-109.180107		-5.484076		-0.300821		22.740244		47.210205		-9.696107		3.557207		-107.127122		-17.925786		-7.556003		13.909032		-26.518612		-0.946466		4.011644		1.154687		8.148173		0.541886		94.570501		-17.566672		36.115873		58.909715		97.068916		0.980478		-11.710610		-35.350363		96.139202		-15.221670		24.196869		54.387073		109.024782		-12.144759		-7.654845		-15.047699		
1.755000		2.964302		-14.712278		87.560356		-0.016840		1.712827		1.226838		64.468680		-7.955713		-5.874046		-108.161297		-5.965069		0.868476		23.042591		47.299671		-9.724498		3.564739		-106.222816		-16.952338		-9.233736		13.636173		-26.332440		-0.579776		4.115668		0.625670		8.179818		0.406095		93.059422		-18.248715		35.885796		59.266690		97.363530		1.252574		-11.180760		-35.636220		94.520181		-15.848773		24.223816		54.715442		109.377452		-12.262134		-7.088822		-15.228696		
1.759091		3.058296		-14.537427		87.753011		-0.016840		1.711778		1.219350		64.298872		-7.950412		-6.363159		-107.125679		-6.523678		1.675703		23.314234		47.306731		-9.699878		3.548782		-105.258889		-16.368571		-10.319485		13.392098		-26.230647		-0.366899		4.170854		0.103079		8.178283		0.294374		91.547337		-19.092909		35.918099		59.686638		97.811343		1.412254		-10.983338		-35.772882		92.928257		-16.692256		24.489407		55.120114		109.684470		-12.214058		-6.823926		-15.284850		
1.763182		3.153941		-14.363927		87.936512		-0.016962		1.710553		1.211843		64.100478		-7.927672		-6.836829		-106.029223		-7.088941		2.429835		23.630981		47.315899		-9.707702		3.491105		-104.284779		-15.947227		-11.246325		13.103381		-26.122276		-0.132363		4.215162		-0.435812		8.170464		0.206048		90.015156		-19.969190		35.999482		60.088373		98.406730		1.565568		-10.824998		-35.837467		91.297129		-17.585591		24.781630		55.497321		109.979672		-12.140709		-6.566779		-15.315807		
1.767273		3.284618		-14.204203		88.122838		-0.017022		1.709205		1.204296		63.881789		-7.882445		-7.305438		-104.898520		-7.686190		3.171600		24.033889		47.337459		-9.749611		3.421602		-103.281694		-15.644293		-12.045641		12.733880		-25.999685		0.130736		4.266685		-1.004065		8.151697		0.133290		88.433244		-20.840124		36.081086		60.469736		99.216544		1.733445		-10.673553		-35.831437		89.607959		-18.522565		25.079100		55.862695		110.270777		-12.051492		-6.286831		-15.328356		
1.771364		3.499037		-14.139993		88.341542		-0.017141		1.707508		1.196736		63.705187		-7.780318		-7.828235		-103.679945		-8.269631		3.936580		24.916365		47.480933		-9.850027		3.449795		-102.281613		-15.483935		-12.541726		11.947055		-25.769849		0.522489		4.281815		-1.626256		8.012480		0.121957		86.753285		-21.602782		35.922385		60.833040		100.989920		2.154837		-10.389478		-35.727435		87.776269		-19.581925		25.320888		56.342695		110.657542		-11.924374		-5.821226		-15.332984		
1.775455		3.602359		-14.008269		88.517124		-0.017305		1.705804		1.189119		63.458640		-7.761890		-8.269058		-102.444927		-8.885819		4.461217		25.641512		47.511790		-9.868778		3.374732		-101.238460		-15.344541		-12.722422		11.287720		-25.599688		0.792258		4.266566		-2.229006		7.918949		0.068986		85.090028		-22.395202		35.856579		61.069696		102.300129		2.547622		-10.250738		-35.673763		85.975901		-20.659216		25.668430		56.684186		110.977464		-11.747419		-5.576886		-15.313081		
1.779545		3.633239		-13.795857		88.625456		-0.017455		1.704093		1.181415		63.122462		-7.721123		-8.598179		-101.181543		-9.536311		4.837950		25.842368		47.388468		-9.843265		3.225393		-100.123585		-15.261982		-12.575807		11.083805		-25.520509		0.963459		4.265293		-2.902924		7.883062		0.003847		83.473692		-23.265819		36.015395		61.229574		102.663342		2.736108		-10.234003		-35.707882		84.206544		-21.757484		26.145405		56.848530		111.154776		-11.615292		-5.587422		-15.296064		
